<?xml version="1.0" encoding="utf-8"?>
<!-- Generator: Adobe Illustrator 22.1.0, SVG Export Plug-In . SVG Version: 6.00 Build 0)  -->
<svg version="1.1" id="Layer_1" xmlns="http://www.w3.org/2000/svg" xmlns:xlink="http://www.w3.org/1999/xlink" x="0px" y="0px"
	 viewBox="0 0 200 200" style="enable-background:new 0 0 200 200;" xml:space="preserve">
<style type="text/css">
	.st0{fill:#FFD630;}
	.st1{fill:#F7F7F8;}
	.st2{fill:#0070E0;}
	.st3{fill:#999999;}
	.st4{fill:#045BA3;}
</style>
<g>
	<path class="st0" d="M72.7,64.2c19.2,0,35,0,54.4,0c2.9,0,5.3,2.4,5.3,5.3v31.9v7.6v26.8v2.3c0,3.6-2.9,6.5-6.5,6.5H72.7
		c-2.9,0-5.3-2.4-5.3-5.3V69.5C67.3,66.6,69.7,64.2,72.7,64.2z"/>
	<rect x="72.3" y="71.1" class="st1" width="55.2" height="68.9"/>
	<g>
		<path class="st2" d="M75.5,78H83v8.7h-7.5V78z M75.5,124.5H83v8.7h-7.5V124.5z M75.5,109H83v8.7h-7.5V109z M75.5,93.5H83v8.7h-7.5
			V93.5z"/>
	</g>
	<path class="st3" d="M86.6,80.2h25.7v4.3H86.6V80.2L86.6,80.2z M86.6,111.2h25.7v4.3H86.6V111.2L86.6,111.2z M86.6,95.7h25.7v4.3
		H86.6V95.7L86.6,95.7z M86.6,126.7h25.7v4.3H86.6V126.7L86.6,126.7z"/>
	<path class="st2" d="M94.7,59.7h0.8c-0.2-0.4-0.4-0.8-0.4-1.3v-2.8c0-1.5,1.4-2.8,3.1-2.8h3.2c1.7,0,3.1,1.2,3.1,2.8v2.8
		c0,0.5-0.1,0.9-0.4,1.3h0.8c5.7,0,10.3,4.2,10.3,9.3l0,0H84.4l0,0C84.4,63.8,89.1,59.7,94.7,59.7L94.7,59.7L94.7,59.7z"/>
	<path class="st4" d="M99.9,52.9h1.6c1.7,0,3.1,1.2,3.1,2.8v2.8c0,0.5-0.1,0.9-0.4,1.3h0.8c5.7,0,10.3,4.2,10.3,9.3l0,0H99.9
		L99.9,52.9L99.9,52.9z"/>
</g>
<path class="st2" d="M98.3,25.8c-41.2,0-74.6,33.4-74.6,74.6S57,175,98.3,175s74.6-33.4,74.6-74.6S139.5,25.8,98.3,25.8z
	 M33.9,100.4c0-35.5,28.8-64.3,64.3-64.3c15.3,0,30.1,5.4,41.7,15.3l-90.6,90.6C39.4,130.4,33.9,115.7,33.9,100.4L33.9,100.4z
	 M98.3,164.7c-15.3,0-30.1-5.4-41.7-15.4l90.6-90.6c23,27,19.8,67.6-7.3,90.6C128.3,159.3,113.5,164.7,98.3,164.7L98.3,164.7z"/>
</svg>
