<?xml version="1.0" encoding="utf-8"?>
<!-- Generator: Adobe Illustrator 22.1.0, SVG Export Plug-In . SVG Version: 6.00 Build 0)  -->
<svg version="1.1" id="Layer_1" xmlns="http://www.w3.org/2000/svg" xmlns:xlink="http://www.w3.org/1999/xlink" x="0px" y="0px"
	 viewBox="0 0 150 150" style="enable-background:new 0 0 150 150;" xml:space="preserve">
<style type="text/css">
	.st0{fill:#209447;}
	.st1{fill:#CEF4D8;}
	.st2{fill:#FABC9B;}
	.st3{fill:#0070E0;}
	.st4{fill:#2A394F;}
</style>
<circle class="st0" cx="67.1" cy="30.3" r="19.4"/>
<circle class="st1" cx="67.1" cy="30.3" r="14.3"/>
<g>
	<path class="st2" d="M64,114.1l-0.8-4.7c0,0,0.9-1.9-3.2-2.9c0,0-10.4-2.8-9.5-14.6L51.6,66c0,0-1.2-11.1,7.6-2.4
		c0,0,2.1,3.6,1.5,9c0,0,0.9-2.4,1.2-12l0.1-28.9c0,0,0-6.9,5.4-6.8c0,0,4.8-1,5.1,7.4l0.2,24.7c0,0,7.6-5,10.6,2.4
		c0,0,6.8-4.9,9.9,3.3c0,0,7.5-3.8,8.5,4.1l-0.3,27.8c0,0-1,7.2-5.2,11.6c0,0-0.5,5.2,0.4,8.7L64,114.1z"/>
	<polygon class="st3" points="101.5,139.1 102.3,115 59.4,114 59.1,139.1 	"/>
	<polygon class="st4" points="101.5,139.1 102.3,115 81.6,114.4 81.6,139.1 	"/>
</g>
</svg>
