<?xml version="1.0" encoding="utf-8"?>
<!-- Generator: Adobe Illustrator 22.1.0, SVG Export Plug-In . SVG Version: 6.00 Build 0)  -->
<svg version="1.1" id="Layer_1" xmlns="http://www.w3.org/2000/svg" xmlns:xlink="http://www.w3.org/1999/xlink" x="0px" y="0px"
	 viewBox="0 0 256 256" style="enable-background:new 0 0 256 256;" xml:space="preserve">
<style type="text/css">
	.st0{fill:#FF910D;}
	.st1{fill-opacity:0;stroke:#FF910D;stroke-width:4;}
	.st2{fill:#EF5F0F;}
	.st3{fill:#EF5F0F;fill-opacity:0;stroke:#EF5F0F;stroke-width:4;}
	.st4{fill:#ED1C24;}
	.st5{fill:#ED1C24;fill-opacity:0;stroke:#ED1C24;stroke-width:4;}
	.st6{fill:#5ED0DB;}
	.st7{fill-opacity:0;stroke:#5ED0DB;stroke-width:4;}
	.st8{fill:#29B1E6;}
	.st9{fill-opacity:0;stroke:#29B1E6;stroke-width:4;}
	.st10{fill:#0070E0;}
	.st11{fill:#0070E0;fill-opacity:0;stroke:#0070E0;stroke-width:4;}
	.st12{fill:#FFB829;}
	.st13{fill:#FFB829;fill-opacity:0;stroke:#FFB829;stroke-width:4;}
	.st14{fill:#17CCA1;}
	.st15{fill:#17CCA1;fill-opacity:0;stroke:#17CCA1;stroke-width:4;}
</style>
<g id="Layer_2_Copy">
	<g>
		<path class="st0" d="M201.9,150.7c0,2.5,0,0.5,0.1,6.1l0.1,8.9c0,3.6,0,3.6,0,4.5l0,1.7l1.7,0c0.8,0,0.8,0,4.1,0
			c4.1,0,4.1,0,8.9,0c5.4,0,3.3,0,6.3,0c-1.5,1.7-0.6,0.7-3,3c-10.2,9.2-23.5,14.7-35.2,14.7c-16.4,0-27.7-4.5-36.8-12.6
			c-1.3-1.2-0.7-0.6-1.8-1.7c0-0.9,0-1.8,0-2.6c0-4.1,0-4.1,0-8.9c0-4.9,0-4.9,0.1-8.9c0-1.5,0-0.7,0-2.3c0.9,0,1.8,0,2.8,0
			c3.6,0,7.2-0.1,10.8-0.1c4.8,0,3,0,5.5-0.1c0.6,0.6,0.2,0.2,1.3,1.2c4.4,3.4,9.6,5.5,15.9,5.4
			C189.8,158.9,197.3,156.5,201.9,150.7z"/>
		<path class="st1" d="M201.9,150.7c0,2.5,0,0.5,0.1,6.1l0.1,8.9c0,3.6,0,3.6,0,4.5l0,1.7l1.7,0c0.8,0,0.8,0,4.1,0
			c4.1,0,4.1,0,8.9,0c5.4,0,3.3,0,6.3,0c-1.5,1.7-0.6,0.7-3,3c-10.2,9.2-23.5,14.7-35.2,14.7c-16.4,0-27.7-4.5-36.8-12.6
			c-1.3-1.2-0.7-0.6-1.8-1.7c0-0.9,0-1.8,0-2.6c0-4.1,0-4.1,0-8.9c0-4.9,0-4.9,0.1-8.9c0-1.5,0-0.7,0-2.3c0.9,0,1.8,0,2.8,0
			c3.6,0,7.2-0.1,10.8-0.1c4.8,0,3,0,5.5-0.1c0.6,0.6,0.2,0.2,1.3,1.2c4.4,3.4,9.6,5.5,15.9,5.4
			C189.8,158.9,197.3,156.5,201.9,150.7z"/>
	</g>
	<g>
		<path class="st2" d="M228.3,90.7c10.6,9.9,15.4,23.6,15.8,37.8c0,10.2-3,20.1-8.6,28.6c-0.9,1.4-2,2.8-3.1,4.1l-0.4,0
			c-3.2,0-6.3,0-9.5-0.1c-2.6,0-5.2,0-7.8,0c-1.4,0-0.7,0-2.3,0c0-0.9,0-1.8,0-2.7l-0.1-10.5c0-2.9-0.1-5.8-0.1-8.7
			c0-0.7,0-0.4,0-0.9c1.5-3.5,2-7.4,2-11.2c-0.1-6-2-12.3-6.5-16.5c3-0.1,0.8,0,6.5-0.3c2.9-0.1,5.8-0.2,8.7-0.4
			c3.5-0.1,3.5-0.1,4.4-0.2l1.7-0.1l0-1.7c0-0.8,0-0.8-0.1-3.9c-0.1-3.9-0.1-3.9-0.2-8.7C228.4,93.9,228.4,92.3,228.3,90.7z"/>
		<path class="st3" d="M228.3,90.7c10.6,9.9,15.4,23.6,15.8,37.8c0,10.2-3,20.1-8.6,28.6c-0.9,1.4-2,2.8-3.1,4.1l-0.4,0
			c-3.2,0-6.3,0-9.5-0.1c-2.6,0-5.2,0-7.8,0c-1.4,0-0.7,0-2.3,0c0-0.9,0-1.8,0-2.7l-0.1-10.5c0-2.9-0.1-5.8-0.1-8.7
			c0-0.7,0-0.4,0-0.9c1.5-3.5,2-7.4,2-11.2c-0.1-6-2-12.3-6.5-16.5c3-0.1,0.8,0,6.5-0.3c2.9-0.1,5.8-0.2,8.7-0.4
			c3.5-0.1,3.5-0.1,4.4-0.2l1.7-0.1l0-1.7c0-0.8,0-0.8-0.1-3.9c-0.1-3.9-0.1-3.9-0.2-8.7C228.4,93.9,228.4,92.3,228.3,90.7z"/>
	</g>
	<g>
		<path class="st4" d="M181,66.2c12.9,0.2,26.1,4.5,36.1,13.1c0.1,2.7,0.1,5.4,0.2,8.1c0.1,4.7,0.1,4.7,0.2,8.7c0,0.8,0,1.5,0.1,2.3
			c-0.9,0-1.8,0.1-2.7,0.1c-3.5,0.1-7,0.3-10.5,0.4c-2.9,0.1-5.8,0.2-8.7,0.4l-0.3,0c-3.9-2.2-8.5-3-13-3.2
			c-4.1-0.1-8.4,1.3-12.6,3.7c-1.4,0.8-2.7,1.7-3.9,2.6c-0.4,0.3-0.8,0.6-1,0.8c-0.2,0.1-0.3,0.2-0.3,0.3l-3.7,3l0-5
			c0-0.5,0-0.5,0-2.6c0-1.5,0.1-3.1,0.1-4.6c0-2.1,0-4.3,0-6.4c-1.8,0-4.7,0-6.5,0c-3.1,0-3.1,0-5.7,0.1c-2.1,0-2.1,0-2.6,0
			l-6.5,0.1l4.4-4.8c0.1-0.2,0.4-0.4,0.8-0.8c0.6-0.6,1.3-1.2,2.1-1.9c2.2-2,4.8-4,7.6-5.8C162.7,69.4,171.6,66.2,181,66.2z"/>
		<path class="st5" d="M181,66.2c12.9,0.2,26.1,4.5,36.1,13.1c0.1,2.7,0.1,5.4,0.2,8.1c0.1,4.7,0.1,4.7,0.2,8.7c0,0.8,0,1.5,0.1,2.3
			c-0.9,0-1.8,0.1-2.7,0.1c-3.5,0.1-7,0.3-10.5,0.4c-2.9,0.1-5.8,0.2-8.7,0.4l-0.3,0c-3.9-2.2-8.5-3-13-3.2
			c-4.1-0.1-8.4,1.3-12.6,3.7c-1.4,0.8-2.7,1.7-3.9,2.6c-0.4,0.3-0.8,0.6-1,0.8c-0.2,0.1-0.3,0.2-0.3,0.3l-3.7,3l0-5
			c0-0.5,0-0.5,0-2.6c0-1.5,0.1-3.1,0.1-4.6c0-2.1,0-4.3,0-6.4c-1.8,0-4.7,0-6.5,0c-3.1,0-3.1,0-5.7,0.1c-2.1,0-2.1,0-2.6,0
			l-6.5,0.1l4.4-4.8c0.1-0.2,0.4-0.4,0.8-0.8c0.6-0.6,1.3-1.2,2.1-1.9c2.2-2,4.8-4,7.6-5.8C162.7,69.4,171.6,66.2,181,66.2z"/>
	</g>
	<g>
		<path class="st6" d="M54.1,150.7c0,2.5,0,0.5-0.1,6.1l-0.1,8.9c0,3.6,0,3.6,0,4.5l0,1.7l-1.7,0c-0.8,0-0.8,0-4.1,0
			c-4.1,0-4.1,0-8.9,0c-5.4,0-3.3,0-6.3,0c1.5,1.7,0.6,0.7,3,3c10.2,9.2,23.5,14.7,35.2,14.7c16.4,0,27.7-4.5,36.8-12.6
			c1.3-1.2,0.7-0.6,1.8-1.7c0-0.9,0-1.8,0-2.6c0-4.1,0-4.1,0-8.9c0-4.9,0-4.9-0.1-8.9c0-1.5,0-0.7,0-2.3c-0.9,0-1.8,0-2.8,0
			c-3.6,0-7.2-0.1-10.8-0.1c-4.8,0-3,0-5.5-0.1c-0.6,0.6-0.2,0.2-1.3,1.2c-4.4,3.4-9.6,5.5-15.9,5.4
			C66.2,158.9,58.7,156.5,54.1,150.7z"/>
		<path class="st7" d="M54.1,150.7c0,2.5,0,0.5-0.1,6.1l-0.1,8.9c0,3.6,0,3.6,0,4.5l0,1.7l-1.7,0c-0.8,0-0.8,0-4.1,0
			c-4.1,0-4.1,0-8.9,0c-5.4,0-3.3,0-6.3,0c1.5,1.7,0.6,0.7,3,3c10.2,9.2,23.5,14.7,35.2,14.7c16.4,0,27.7-4.5,36.8-12.6
			c1.3-1.2,0.7-0.6,1.8-1.7c0-0.9,0-1.8,0-2.6c0-4.1,0-4.1,0-8.9c0-4.9,0-4.9-0.1-8.9c0-1.5,0-0.7,0-2.3c-0.9,0-1.8,0-2.8,0
			c-3.6,0-7.2-0.1-10.8-0.1c-4.8,0-3,0-5.5-0.1c-0.6,0.6-0.2,0.2-1.3,1.2c-4.4,3.4-9.6,5.5-15.9,5.4
			C66.2,158.9,58.7,156.5,54.1,150.7z"/>
	</g>
	<g>
		<path class="st8" d="M27.7,90.7c-10.6,9.9-15.4,23.6-15.8,37.8c0,10.2,3,20.1,8.6,28.6c0.9,1.4,2,2.8,3.1,4.1l0.4,0
			c3.2,0,6.3,0,9.5-0.1c2.6,0,5.2,0,7.8,0c1.5,0,0.7,0,2.3,0c0-0.9,0-1.8,0-2.7l0.1-10.5c0-2.9,0.1-5.8,0.1-8.7c0-0.7,0-0.4,0-0.9
			c-1.5-3.5-2-7.4-2-11.2c0.1-6,2-12.3,6.5-16.5c-3-0.1-0.8,0-6.5-0.3c-2.9-0.1-5.8-0.2-8.7-0.4c-3.5-0.1-3.5-0.1-4.4-0.2l-1.7-0.1
			l0-1.7c0-0.8,0-0.8,0.1-3.9c0.1-3.9,0.1-3.9,0.2-8.7C27.6,93.9,27.6,92.3,27.7,90.7z"/>
		<path class="st9" d="M27.7,90.7c-10.6,9.9-15.4,23.6-15.8,37.8c0,10.2,3,20.1,8.6,28.6c0.9,1.4,2,2.8,3.1,4.1l0.4,0
			c3.2,0,6.3,0,9.5-0.1c2.6,0,5.2,0,7.8,0c1.5,0,0.7,0,2.3,0c0-0.9,0-1.8,0-2.7l0.1-10.5c0-2.9,0.1-5.8,0.1-8.7c0-0.7,0-0.4,0-0.9
			c-1.5-3.5-2-7.4-2-11.2c0.1-6,2-12.3,6.5-16.5c-3-0.1-0.8,0-6.5-0.3c-2.9-0.1-5.8-0.2-8.7-0.4c-3.5-0.1-3.5-0.1-4.4-0.2l-1.7-0.1
			l0-1.7c0-0.8,0-0.8,0.1-3.9c0.1-3.9,0.1-3.9,0.2-8.7C27.6,93.9,27.6,92.3,27.7,90.7z"/>
	</g>
	<g>
		<path class="st10" d="M75,66.2C62,66.4,48.8,70.7,38.9,79.2c-0.1,2.7-0.1,5.4-0.2,8.1c-0.1,4.7-0.1,4.7-0.2,8.7
			c0,0.8,0,1.5-0.1,2.3c0.9,0,1.8,0.1,2.7,0.1c3.5,0.1,7,0.3,10.5,0.4c2.9,0.1,5.8,0.2,8.7,0.4l0.3,0c3.9-2.2,8.5-3,13-3.2
			c4.1-0.1,8.4,1.3,12.6,3.7c1.4,0.8,2.7,1.7,3.9,2.6c0.4,0.3,0.8,0.6,1,0.8c0.2,0.1,0.3,0.2,0.3,0.3l3.7,3l0-5c0-0.5,0-0.5,0-2.6
			c0-1.5-0.1-3.1-0.1-4.6c0-2.1,0-4.3,0-6.4c1.8,0,4.7,0,6.5,0c3.1,0,3.1,0,5.7,0.1c2.1,0,2.1,0,2.6,0l6.5,0.1l-4.4-4.8
			c-0.1-0.2-0.4-0.4-0.8-0.8c-0.6-0.6-1.3-1.2-2.1-1.9c-2.2-2-4.8-4-7.6-5.8C93.3,69.4,84.4,66.2,75,66.2z"/>
		<path class="st11" d="M75,66.2C62,66.4,48.8,70.7,38.9,79.2c-0.1,2.7-0.1,5.4-0.2,8.1c-0.1,4.7-0.1,4.7-0.2,8.7
			c0,0.8,0,1.5-0.1,2.3c0.9,0,1.8,0.1,2.7,0.1c3.5,0.1,7,0.3,10.5,0.4c2.9,0.1,5.8,0.2,8.7,0.4l0.3,0c3.9-2.2,8.5-3,13-3.2
			c4.1-0.1,8.4,1.3,12.6,3.7c1.4,0.8,2.7,1.7,3.9,2.6c0.4,0.3,0.8,0.6,1,0.8c0.2,0.1,0.3,0.2,0.3,0.3l3.7,3l0-5c0-0.5,0-0.5,0-2.6
			c0-1.5-0.1-3.1-0.1-4.6c0-2.1,0-4.3,0-6.4c1.8,0,4.7,0,6.5,0c3.1,0,3.1,0,5.7,0.1c2.1,0,2.1,0,2.6,0l6.5,0.1l-4.4-4.8
			c-0.1-0.2-0.4-0.4-0.8-0.8c-0.6-0.6-1.3-1.2-2.1-1.9c-2.2-2-4.8-4-7.6-5.8C93.3,69.4,84.4,66.2,75,66.2z"/>
	</g>
	<g>
		<path class="st12" d="M158.7,141.3c-6.1-7.1-34.1-43.4-34.1-43.4l-19.7-0.9v21.2l31.7,43.1l0.1-20.1
			C136.6,141.1,148.4,141.3,158.7,141.3z"/>
		<path class="st13" d="M158.7,141.3c-6.1-7.1-34.1-43.4-34.1-43.4l-19.7-0.9v21.2l31.7,43.1l0.1-20.1
			C136.6,141.1,148.4,141.3,158.7,141.3z"/>
	</g>
	<g>
		<path class="st14" d="M96.4,143.8c6.1-7.1,34.1-43.4,34.1-43.4l19.7-0.9v21.2l-31.7,43.1l0-20.1
			C118.5,143.6,106.7,143.9,96.4,143.8z"/>
		<path class="st15" d="M96.4,143.8c6.1-7.1,34.1-43.4,34.1-43.4l19.7-0.9v21.2l-31.7,43.1l0-20.1
			C118.5,143.6,106.7,143.9,96.4,143.8z"/>
	</g>
</g>
</svg>
