<?xml version="1.0" encoding="utf-8"?>
<!-- Generator: Adobe Illustrator 22.1.0, SVG Export Plug-In . SVG Version: 6.00 Build 0)  -->
<svg version="1.1" id="Layer_1" xmlns="http://www.w3.org/2000/svg" xmlns:xlink="http://www.w3.org/1999/xlink" x="0px" y="0px"
	 viewBox="0 0 200 200" style="enable-background:new 0 0 200 200;" xml:space="preserve">
<style type="text/css">
	.st0{fill:#0070E0;}
	.st1{fill:#C2ECFF;}
	.st2{fill:#FFFFFF;}
	.st3{fill:#209447;}
	.st4{fill:#1A2B63;}
	.st5{fill:#FFD83B;}
	.st6{fill:#FFCD8A;}
</style>
<g>
	<path class="st0" d="M188,139.4H12c-6.6,0-12-5.4-12-12V32.9c0-6.6,5.4-12,12-12h176c6.6,0,12,5.4,12,12v94.5
		C200,134,194.6,139.4,188,139.4z"/>
	<rect x="12.3" y="32.7" class="st1" width="176.4" height="94.8"/>
	<path class="st2" d="M87.9,40.2c-5.3,0-10,2.6-13,6.6H33.5c-4.4,0-8,3.6-8,8v6.1c0,4.4,3.6,8,8,8h43.5c2.9,2.7,6.8,4.3,11,4.3
		c9,0,16.3-7.4,16.3-16.5S96.9,40.2,87.9,40.2z"/>
	<g>
		<g>
			<path class="st3" d="M87.9,39c-5.1,0-9.7,2.2-12.9,5.7H25.4c-1.5,0-2.8,1.2-2.8,2.8v21c0,1.5,1.2,2.8,2.8,2.8H78
				c2.8,1.9,6.3,3.1,9.9,3.1c9.7,0,17.6-7.9,17.6-17.6S97.7,39,87.9,39z M38.4,67.4c-2.9,1-6.1-0.2-7.4-2.7
				c-0.2-0.3-0.3-0.7-0.5-1.2c1.1,0,2.1-0.1,3.1-0.1c0.1,0,0.2,0.2,0.3,0.3c0.9,1.7,3.6,1.9,4.6,0.2c0.4-0.6,0.3-1.4,0.5-2.3
				c-0.3,0.1-0.4,0.1-0.5,0.2c-1.9,1.7-5.7,0.7-7.1-1c-2.5-3-1.9-7.9,1.3-10.1c1-0.7,2.1-0.9,3.3-0.9c0.9,0,1.7,0.5,2.3,1.2
				c0.1,0.1,0.3,0.3,0.4,0.5c0-0.2,0-0.4,0-0.5c0-0.9-0.2-0.9,0.9-0.9c0.8,0,1.6,0,2.5,0c0,0.3,0,0.4,0,0.6c0,3.8-0.1,7.5,0,11.3
				C42.4,65.2,40.6,66.6,38.4,67.4z M50,62.7c-3.7,0-6.5-2.7-6.5-6.4c0-3.9,2.6-6.5,6.4-6.5c3.6,0,6.3,2.6,6.3,6.3
				C56.2,59.9,53.6,62.7,50,62.7z M68.6,50.6c-1.4,3.7-2.8,7.5-4.2,11.2c-0.1,0.4-0.3,0.6-0.8,0.6c-0.7,0-1.5,0-2.2,0
				c-0.3,0-0.5-0.1-0.7-0.4c-1.4-3.8-2.8-7.6-4.2-11.4c0-0.1-0.1-0.3-0.1-0.5c1.1,0,2.2,0,3.3,0c0.1,0,0.3,0.3,0.4,0.5
				c0.7,2.2,1.5,4.4,2.2,6.6c0,0.1,0.1,0.2,0.2,0.5c0.4-1.2,0.8-2.2,1.1-3.2c0.4-1.3,0.9-2.6,1.3-3.9c0.1-0.4,0.3-0.5,0.7-0.5
				c1,0,2,0,3,0C68.6,50.3,68.6,50.4,68.6,50.6z M87.9,70.9c-7.9,0-14.3-6.4-14.3-14.3c0-7.9,6.4-14.3,14.3-14.3
				c7.9,0,14.3,6.4,14.3,14.3C102.2,64.5,95.8,70.9,87.9,70.9z"/>
			<path class="st3" d="M51.3,53c-1-0.9-2.2-0.8-3.1,0.1c-1.7,1.6-1.7,4.8,0.1,6.4c1,0.9,2.2,0.8,3.1-0.1c0.9-0.9,1.2-1.9,1.2-2.9
				C52.7,54.9,52.3,53.8,51.3,53z"/>
			<path class="st3" d="M36.8,52.6c-0.8-0.4-1.6-0.2-2.2,0.5c-0.8,0.9-1.1,2-1.1,3.2c0,1.1,0.2,2,0.7,2.7c0.8,1.2,2.2,1.5,3.3,0.7
				C39.4,58.2,39.8,54.1,36.8,52.6z"/>
		</g>
		<path class="st3" d="M98.1,49.8c-0.5-0.5-1.1-0.7-1.8-0.7c-0.6,0-1.3,0.2-1.7,0.7L84,59.7l-4.1-3.9c-0.5-0.4-1.1-0.7-1.7-0.7
			c-0.7,0-1.3,0.3-1.8,0.7c-0.5,0.4-0.7,1-0.7,1.7c0,0.6,0.3,1.2,0.7,1.7l5.9,5.5c0.5,0.4,1.1,0.7,1.7,0.7c0.6,0,1.3-0.2,1.7-0.7
			L98,53.1c0.5-0.4,0.7-1,0.7-1.7C98.8,50.8,98.5,50.2,98.1,49.8z"/>
	</g>
	<g>
		<path class="st4" d="M110.2,99.4c0-4.4,1.5-8.4,4-11.6h-83c-6.4,0-11.6,5.2-11.6,11.6c0,6.4,5.2,11.6,11.6,11.6h83
			C111.7,107.8,110.2,103.8,110.2,99.4z"/>
		<path class="st4" d="M163.4,87.8h-19c2.5,3.2,4,7.2,4,11.6c0,4.4-1.5,8.4-4,11.6h19c6.4,0,11.6-5.2,11.6-11.6
			C175,93,169.8,87.8,163.4,87.8z"/>
	</g>
	<circle class="st0" cx="129.3" cy="99.5" r="20.7"/>
	<polygon class="st5" points="138.7,95.7 129.5,95.7 134.1,83 120,102.4 129.2,102.4 124.6,115 	"/>
	<path class="st6" d="M187.2,179.3v-47.3c0-3.8-3.1-6.8-6.8-6.8h-0.2c-2.8,0-5.2,1.7-6.2,4.1c-1.1-2.4-3.5-4.1-6.2-4.1h-0.2
		c-2.8,0-5.2,1.7-6.2,4.1c-1.1-2.4-3.5-4.1-6.2-4.1h-0.2c-2.4,0-4.4,1.2-5.7,3v-22.1c0-3.8-3.1-6.8-6.8-6.8h-0.2
		c-3.8,0-6.8,3.1-6.8,6.8v46.2l-5.7-5.7c-2.7-2.7-7-2.7-9.6,0l-0.9,0.9c-2.7,2.7-2.7,7,0,9.6l22.1,22.1H187.2z"/>
</g>
</svg>
