<?xml version="1.0" encoding="utf-8"?>
<!-- Generator: Adobe Illustrator 22.1.0, SVG Export Plug-In . SVG Version: 6.00 Build 0)  -->
<svg version="1.1" id="Layer_1" xmlns="http://www.w3.org/2000/svg" xmlns:xlink="http://www.w3.org/1999/xlink" x="0px" y="0px"
	 viewBox="0 0 150 150" style="enable-background:new 0 0 150 150;" xml:space="preserve">
<style type="text/css">
	.st0{fill:#DAEDFF;}
	.st1{fill:#445EA0;}
	.st2{fill:#293D7C;}
	.st3{fill:#2A394F;}
	.st4{fill:#FFFFFF;}
	.st5{fill:#C3DDF4;}
	.st6{fill:#ED1C24;}
	.st7{fill:#0070E0;}
	.st8{fill:#E1EEF9;}
	.st9{fill:#F2C2C2;}
	.st10{fill:#BDE4FF;stroke:#2A394F;stroke-width:0.75;stroke-miterlimit:10;}
	.st11{fill:#90CAF9;}
	.st12{fill:#8FCCFF;stroke:#0070E0;stroke-width:0.75;stroke-miterlimit:10;}
	.st13{fill:#A5D5F9;}
</style>
<circle class="st0" cx="77.6" cy="73.6" r="58.1"/>
<rect x="58.3" y="97.9" class="st1" width="18.7" height="9.8"/>
<path class="st2" d="M89.4,107.4H44.6c-0.7,0-1.2,0.5-1.2,1.2v6.1c0,0.7,0.5,1.2,1.2,1.2h44.9L89.4,107.4L89.4,107.4z"/>
<path class="st3" d="M119.8,26.9H15.5c-0.7,0-1.2,0.5-1.2,1.2v68.8c0,0.7,0.5,1.2,1.2,1.2h73.9V61.9c0-0.9,0.7-1.7,1.7-1.7H121V28.1
	C121,27.5,120.5,26.9,119.8,26.9z"/>
<path class="st4" d="M19.6,86.1c0,0.4,0.3,0.7,0.7,0.7h69V61.9c0-0.9,0.7-1.7,1.7-1.7h24.6V38.8H19.6V86.1z"/>
<circle class="st1" cx="67.7" cy="92.4" r="3.3"/>
<path class="st5" d="M89.4,65.8H76.8c-0.4,0-0.7,0.3-0.7,0.7v14.1c0,0.4,0.3,0.7,0.7,0.7h12.7V65.8z"/>
<path class="st5" d="M91.1,60.3h11V44.8c0-0.7-0.5-1.2-1.2-1.2H34.4c-0.7,0-1.2,0.5-1.2,1.2v15.8c0,0.7,0.5,1.2,1.2,1.2h55
	C89.5,60.9,90.2,60.3,91.1,60.3z"/>
<path class="st6" d="M115,33.1H20.4c-0.4,0-0.7,0.3-0.7,0.7V39h96.1v-5.2C115.7,33.4,115.4,33.1,115,33.1z"/>
<g>
	<path class="st7" d="M55,69.6H35c-1,0-1.8-0.8-1.8-1.8c0-1,0.8-1.8,1.8-1.8H55c1,0,1.8,0.8,1.8,1.8C56.8,68.8,56,69.6,55,69.6z"/>
	<path class="st7" d="M55,75.4H35c-1,0-1.8-0.8-1.8-1.8c0-1,0.8-1.8,1.8-1.8H55c1,0,1.8,0.8,1.8,1.8C56.8,74.6,56,75.4,55,75.4z"/>
	<path class="st7" d="M55,81.2H35c-1,0-1.8-0.8-1.8-1.8s0.8-1.8,1.8-1.8H55c1,0,1.8,0.8,1.8,1.8S56,81.2,55,81.2z"/>
	<path class="st7" d="M70.6,69.6H60.4c-1,0-1.8-0.8-1.8-1.8c0-1,0.8-1.8,1.8-1.8h10.3c1,0,1.8,0.8,1.8,1.8
		C72.4,68.8,71.6,69.6,70.6,69.6z"/>
	<path class="st7" d="M70.6,75.4H60.4c-1,0-1.8-0.8-1.8-1.8c0-1,0.8-1.8,1.8-1.8h10.3c1,0,1.8,0.8,1.8,1.8
		C72.4,74.6,71.6,75.4,70.6,75.4z"/>
	<path class="st7" d="M70.6,81.2H60.4c-1,0-1.8-0.8-1.8-1.8s0.8-1.8,1.8-1.8h10.3c1,0,1.8,0.8,1.8,1.8S71.6,81.2,70.6,81.2z"/>
</g>
<path class="st3" d="M133.8,60c1,0,1.9,0.9,1.9,1.9v57.3c0,1-0.9,1.9-1.9,1.9H91.1c-1,0-1.9-0.9-1.9-1.9V61.9c0-1,0.9-1.9,1.9-1.9
	H133.8L133.8,60z"/>
<path class="st4" d="M94.3,113.7c-0.7,0-1.2-0.5-1.2-1.2V64.9c0-0.7,0.5-1.2,1.2-1.2h36.2c0.7,0,1.2,0.5,1.2,1.2v47.6
	c0,0.7-0.5,1.2-1.2,1.2H94.3z"/>
<path class="st1" d="M110.2,118.4c-0.7,0-1.2-0.5-1.2-1.2v-0.5c0-0.7,0.5-1.2,1.2-1.2h4.4c0.7,0,1.2,0.5,1.2,1.2v0.5
	c0,0.7-0.5,1.2-1.2,1.2H110.2z"/>
<path class="st6" d="M131.7,68.3v-3.4c0-0.7-0.5-1.2-1.2-1.2H94.3c-0.7,0-1.2,0.5-1.2,1.2v3.4H131.7L131.7,68.3z"/>
<path class="st8" d="M126.1,111.1H98.8c-1.7,0-3-1.3-3-3V73.2c0-1.7,1.3-3,3-3h27.3c1.7,0,3,1.3,3,3v34.9
	C129.1,109.8,127.7,111.1,126.1,111.1z"/>
<path class="st9" d="M124.9,108.8h-10.2c-0.6,0-1-0.4-1-1v-3.5c0-0.6,0.4-1,1-1h10.2c0.5,0,1,0.4,1,1v3.5
	C125.9,108.4,125.5,108.8,124.9,108.8z"/>
<path class="st4" d="M110.6,108.8h-10.2c-0.5,0-1-0.4-1-1v-3.5c0-0.6,0.5-1,1-1h10.2c0.5,0,1,0.4,1,1v3.5
	C111.6,108.4,111.1,108.8,110.6,108.8z"/>
<path class="st7" d="M125,88h-24.5c-0.6,0-1.1-0.5-1.1-1.1v-0.3c0-0.6,0.5-1.1,1.1-1.1H125c0.6,0,1.1,0.5,1.1,1.1v0.3
	C126.1,87.5,125.6,88,125,88z"/>
<path class="st7" d="M124.8,91.8h-24.5c-0.6,0-1.1-0.5-1.1-1.1v-0.3c0-0.6,0.5-1.1,1.1-1.1h24.5c0.6,0,1.1,0.5,1.1,1.1v0.3
	C125.8,91.3,125.4,91.8,124.8,91.8z"/>
<path class="st7" d="M124.8,95.6h-24.5c-0.6,0-1.1-0.5-1.1-1.1v-0.3c0-0.6,0.5-1.1,1.1-1.1h24.5c0.6,0,1.1,0.5,1.1,1.1v0.3
	C125.8,95.1,125.4,95.6,124.8,95.6z"/>
<path class="st7" d="M125,82.6h-24.5c-0.6,0-1.1-0.5-1.1-1.1v-7.7c0-0.6,0.5-1.1,1.1-1.1H125c0.6,0,1.1,0.5,1.1,1.1v7.7
	C126.1,82.1,125.6,82.6,125,82.6z"/>
<path class="st10" d="M82.9,130.7H38.2c-0.5,0-1-0.5-1-1v-25.1c0-0.6,0.5-1,1-1h44.7c0.6,0,1,0.4,1,1v25.1
	C83.9,130.3,83.5,130.7,82.9,130.7z"/>
<g>
	<path class="st11" d="M77.1,112.3H61.5c-0.5,0-1-0.4-1-1c0-0.5,0.4-1,1-1h15.6c0.5,0,1,0.4,1,1C78,111.8,77.6,112.3,77.1,112.3z"/>
	<path class="st11" d="M71.2,118.1h-9.7c-0.5,0-1-0.4-1-1s0.4-1,1-1h9.7c0.5,0,1,0.4,1,1S71.8,118.1,71.2,118.1z"/>
	<path class="st11" d="M77.1,124H61.5c-0.5,0-1-0.4-1-1c0-0.5,0.4-1,1-1h15.6c0.5,0,1,0.4,1,1C78,123.5,77.6,124,77.1,124z"/>
</g>
<g id="g505EQ.tif_3_">
	<g>
		<path class="st12" d="M49.9,127c-1.1,0-2.2,0-3.3,0c0,0-0.1,0-0.2,0c-0.2,0-0.4,0-0.6,0c-0.7-0.1-1.4-0.1-2-0.2
			c-0.8-0.1-1.6-0.3-2.3-0.6c-0.8-0.3-1.5-0.7-1.7-1.6c0-0.4,0-0.8,0-1.2c0.1-0.2,0.2-0.5,0.3-0.7c0.5-0.7,1.1-1.1,1.7-1.6
			c1-0.7,2.2-1.2,3.4-1.6c0.7-0.3,0.9-0.8,0.8-1.5c0-0.1-0.1-0.3-0.2-0.4c-0.6-0.6-1.1-1.4-1.5-2.2c-0.4-0.9-0.7-1.8-0.7-2.7
			c0-0.3,0-0.6,0-0.8c0-0.5,0.1-1.1,0.3-1.6c0.5-1.3,1.4-2.2,2.8-2.6c0.8-0.2,1.6-0.3,2.3-0.1c0.9,0.2,1.7,0.6,2.4,1.2
			c0.8,0.8,1.2,1.9,1.2,3c0,0.6,0,1.2-0.1,1.8c-0.3,1.4-0.9,2.6-1.8,3.7c-0.1,0.1-0.3,0.2-0.3,0.4c-0.1,0.3-0.1,0.6-0.1,0.9
			c0,0.4,0.3,0.7,0.6,0.9c1,0.3,2,0.7,2.9,1.3c0.7,0.4,1.4,0.8,2,1.4c0.3,0.4,0.6,0.7,0.7,1.2c0,0.3,0,0.5,0,0.8
			c0,0.6-0.3,1.1-0.8,1.5c-0.6,0.5-1.3,0.7-2,0.9c-1.3,0.3-2.6,0.4-3.9,0.5C50.1,127,50,126.9,49.9,127z"/>
	</g>
</g>
<path class="st13" d="M83.9,122.2h10.2v8.6H83.9V122.2z"/>
<path class="st0" d="M94.1,130.8v-8.6H83.9v8.6H94.1z M96.7,117v14.6c0,1.1-0.9,1.9-1.9,1.9H83.3c-1.1,0-1.9-0.9-1.9-1.9v-15.9
	c0-1.1,0.9-1.9,1.9-1.9h10.1L96.7,117z"/>
<g>
	<path class="st3" d="M93.7,113.4c-0.1-0.1-0.2-0.1-0.3-0.1H83.3c-1.3,0-2.4,1.1-2.4,2.4v15.9c0,1.3,1.1,2.4,2.4,2.4h11.5
		c1.3,0,2.4-1.1,2.4-2.4V117c0-0.1-0.1-0.3-0.1-0.3L93.7,113.4z M96.2,131.5c0,0.8-0.6,1.4-1.4,1.4H83.3c-0.8,0-1.4-0.6-1.4-1.4
		v-15.9c0-0.8,0.6-1.4,1.4-1.4h9.9l3,3V131.5z"/>
	<path class="st7" d="M83.4,122.2v8.6c0,0.3,0.2,0.5,0.5,0.5h10.2v0c0.3,0,0.5-0.2,0.5-0.5v-8.6c0-0.3-0.2-0.5-0.5-0.5H83.9
		C83.6,121.7,83.4,121.9,83.4,122.2z M84.3,122.7h9.3v7.6h-9.3V122.7z"/>
	<path class="st3" d="M85.7,119.6c0.3,0,0.5-0.2,0.5-0.5v-1.6c0-0.3-0.2-0.5-0.5-0.5c-0.3,0-0.5,0.2-0.5,0.5v1.6
		C85.2,119.4,85.4,119.6,85.7,119.6z"/>
	<path class="st3" d="M88.9,119.6c0.3,0,0.5-0.2,0.5-0.5v-1.6c0-0.3-0.2-0.5-0.5-0.5s-0.5,0.2-0.5,0.5v1.6
		C88.4,119.4,88.6,119.6,88.9,119.6z"/>
	<path class="st3" d="M92.1,119.6c0.3,0,0.5-0.2,0.5-0.5v-1.6c0-0.3-0.2-0.5-0.5-0.5s-0.5,0.2-0.5,0.5v1.6
		C91.6,119.4,91.8,119.6,92.1,119.6z"/>
</g>
</svg>
