<?xml version="1.0" encoding="utf-8"?>
<!-- Generator: Adobe Illustrator 22.1.0, SVG Export Plug-In . SVG Version: 6.00 Build 0)  -->
<svg version="1.1" id="Layer_1" xmlns="http://www.w3.org/2000/svg" xmlns:xlink="http://www.w3.org/1999/xlink" x="0px" y="0px"
	 viewBox="0 0 150 150" style="enable-background:new 0 0 150 150;" xml:space="preserve">
<style type="text/css">
	.st0{fill:#57A4FF;}
	.st1{fill:#0070E0;}
	.st2{fill:#B3D8F4;}
	.st3{fill:#78B9EB;}
	.st4{fill:#BBD7FF;}
	.st5{fill:none;stroke:#BBD7FF;stroke-width:2;stroke-miterlimit:10;}
	.st6{fill:#FFFFFF;stroke:#209447;stroke-width:3;stroke-miterlimit:10;}
	.st7{fill:#209447;}
</style>
<path class="st0" d="M27.5,26.2C20,26.2,14,32.3,14,39.7v68c0,7.5,6.1,13.5,13.5,13.5S41,115.2,41,107.7v-68
	C41,32.3,34.9,26.2,27.5,26.2z"/>
<g>
	<path class="st1" d="M23.8,107.7v-68c0-5.7,3.6-10.6,8.6-12.6c-1.5-0.6-3.2-0.9-4.9-0.9C20,26.2,14,32.3,14,39.7v68
		c0,7.5,6.1,13.5,13.5,13.5c1.7,0,3.4-0.3,4.9-0.9C27.4,118.4,23.8,113.5,23.8,107.7z"/>
	<circle class="st1" cx="27.5" cy="107.7" r="13.5"/>
</g>
<circle class="st2" cx="27.5" cy="107.7" r="3.6"/>
<path class="st0" d="M136,121.3H27.5l0,0c7.5,0,13.5-6.1,13.5-13.5v-68h95v74V121.3z"/>
<circle class="st1" cx="27.5" cy="107.7" r="13.5"/>
<circle class="st3" cx="27.5" cy="107.7" r="3.6"/>
<path class="st1" d="M45.9,107.7v-68H41v68c0,7.5-6.1,13.5-13.5,13.5h4.9C39.9,121.3,45.9,115.2,45.9,107.7z"/>
<path class="st4" d="M126.8,59.4h-72c-1.6,0-3-1.4-3-3v-7.8c0-1.7,1.4-3,3-3h72c1.6,0,3,1.3,3,3v7.8
	C129.8,58.1,128.5,59.4,126.8,59.4z"/>
<g>
	<path class="st4" d="M109.9,65.8H89.9c-1.1,0-2-0.6-2-1.3c0-0.7,0.9-1.3,2-1.3h20.1c1.1,0,2,0.6,2,1.3
		C111.9,65.2,111,65.8,109.9,65.8z"/>
	<path class="st4" d="M106.6,71.2h-17c-0.9,0-1.7-0.6-1.7-1.3c0-0.7,0.8-1.3,1.7-1.3h17c0.9,0,1.7,0.6,1.7,1.3
		C108.3,70.6,107.6,71.2,106.6,71.2z"/>
	<path class="st4" d="M99.6,76.5h-11c-0.6,0-1.1-0.6-1.1-1.3c0-0.7,0.5-1.3,1.1-1.3h11c0.6,0,1.1,0.6,1.1,1.3
		C100.7,75.9,100.2,76.5,99.6,76.5z"/>
	<path class="st4" d="M102.3,81.9H88.8c-0.7,0-1.3-0.6-1.3-1.3s0.6-1.3,1.3-1.3h13.5c0.7,0,1.3,0.6,1.3,1.3S103,81.9,102.3,81.9z"/>
	<circle class="st4" cx="84.3" cy="64.5" r="1.3"/>
	<circle class="st4" cx="84.3" cy="69.8" r="1.3"/>
	<circle class="st4" cx="84.3" cy="75.1" r="1.3"/>
	<circle class="st4" cx="84.3" cy="80.4" r="1.3"/>
</g>
<path class="st5" d="M72.8,115.1h-18c-1.6,0-3-1.4-3-3V65.9c0-1.7,1.4-3,3-3h18c1.7,0,3,1.4,3,3v46.2
	C75.8,113.8,74.4,115.1,72.8,115.1z"/>
<g>
	
		<ellipse transform="matrix(1.700352e-02 -0.9999 0.9999 1.700352e-02 11.6796 211.341)" class="st6" cx="113.3" cy="99.7" rx="16.5" ry="16.5"/>
	<path class="st7" d="M123.1,94.5c-0.4-0.4-1-0.6-1.6-0.6c-0.6,0-1.1,0.2-1.5,0.6l-9.5,8.9l-3.7-3.5c-0.4-0.4-1-0.6-1.5-0.6
		c-0.6,0-1.2,0.2-1.6,0.6c-0.4,0.4-0.6,0.9-0.6,1.5c0,0.6,0.2,1.1,0.7,1.5l5.3,4.9c0.4,0.4,1,0.6,1.5,0.6c0.6,0,1.1-0.2,1.5-0.6
		l11.1-10.4c0.4-0.4,0.7-0.9,0.7-1.5C123.7,95.4,123.5,94.9,123.1,94.5z"/>
</g>
</svg>
