<?xml version="1.0" encoding="utf-8"?>
<!-- Generator: Adobe Illustrator 22.1.0, SVG Export Plug-In . SVG Version: 6.00 Build 0)  -->
<svg version="1.1" id="Layer_1" xmlns="http://www.w3.org/2000/svg" xmlns:xlink="http://www.w3.org/1999/xlink" x="0px" y="0px"
	 viewBox="0 0 150 150" style="enable-background:new 0 0 150 150;" xml:space="preserve">
<style type="text/css">
	.st0{fill:#0070E0;}
	.st1{fill:#FFFFFF;stroke:#209447;stroke-width:4;stroke-miterlimit:10;}
	.st2{fill:#209447;stroke:#209447;stroke-width:2;stroke-miterlimit:10;}
</style>
<g>
	<g id="Layer_1_5_">
		<g>
			<path class="st0" d="M59,54.6l-7.7-7.3c0.9-1.6,1.5-3.5,1.5-5.5c0-6.3-5.1-11.4-11.4-11.4s-11.4,5.1-11.4,11.4S35,53.3,41.3,53.3
				c2.2,0,4.3-0.7,6-1.8l7.7,7.3C56.2,57.3,57.5,55.9,59,54.6z"/>
			<path class="st0" d="M91.6,53.7l10.2-17.2c1,0.3,2.1,0.5,3.2,0.5c6.3,0,11.4-5.1,11.4-11.4c0-6.3-5.1-11.4-11.4-11.4
				c-6.3,0-11.4,5.1-11.4,11.4c0,3.1,1.3,6,3.3,8L86.7,50.8C88.4,51.6,90.1,52.5,91.6,53.7z"/>
			<path class="st0" d="M126.9,68.1c-4.9,0-9.1,3.1-10.7,7.5L102,74.2c0,0.1,0,0.2,0,0.3c0,1.9-0.2,3.7-0.6,5.4l14.2,1.4
				c0.9,5.5,5.6,9.6,11.3,9.6c6.3,0,11.4-5.1,11.4-11.4C138.3,73.2,133.2,68.1,126.9,68.1z"/>
			<path class="st0" d="M87.7,113.1l-3.2-13.9c-1.8,0.6-3.7,1.1-5.6,1.3l3.2,13.9c-3.7,1.9-6.2,5.7-6.2,10.1
				c0,6.3,5.1,11.4,11.4,11.4c6.3,0,11.4-5.1,11.4-11.4C98.7,118.3,93.8,113.2,87.7,113.1z"/>
			<path class="st0" d="M50.4,80L32.7,86c-2-3.1-5.6-5.2-9.6-5.2c-6.3,0-11.4,5.1-11.4,11.4c0,6.3,5.1,11.4,11.4,11.4
				c6.3,0,11.4-5.1,11.4-11.4c0-0.3-0.1-0.5-0.1-0.8l17.8-5.9C51.4,83.8,50.8,81.9,50.4,80z"/>
			<circle class="st0" cx="75.9" cy="74.5" r="19.6"/>
		</g>
	</g>
</g>
<ellipse transform="matrix(1.700353e-02 -0.9999 0.9999 1.700353e-02 7.872640e-02 149.1342)" class="st1" cx="75.9" cy="74.5" rx="19.6" ry="19.6"/>
<g id="g505EQ.tif_1_">
	<g>
		<path class="st2" d="M77.8,86c-1.3,0-2.5,0-3.8,0c-0.1-0.1-0.1,0-0.2,0c-0.2,0-0.5,0-0.7,0c-0.8-0.1-1.6-0.1-2.4-0.2
			c-0.9-0.1-1.8-0.3-2.7-0.7c-0.9-0.4-1.7-0.9-2-1.9c0-0.5,0-0.9,0-1.4c0.1-0.3,0.2-0.6,0.4-0.8c0.5-0.8,1.2-1.3,2-1.8
			c1.2-0.8,2.5-1.4,3.9-1.9c0.8-0.3,1.1-0.9,1-1.8c0-0.2-0.1-0.4-0.2-0.5c-0.7-0.8-1.3-1.6-1.7-2.6c-0.5-1-0.8-2.1-0.8-3.2
			c0-0.3,0-0.6,0-1c0-0.6,0.1-1.2,0.4-1.8c0.6-1.5,1.7-2.6,3.2-3c0.9-0.3,1.8-0.3,2.7-0.1c1.1,0.2,2,0.6,2.8,1.4
			c0.9,1,1.4,2.2,1.4,3.5c0,0.7,0,1.4-0.1,2.1c-0.3,1.6-1,3-2,4.3c-0.1,0.2-0.3,0.3-0.4,0.5c-0.1,0.4-0.2,0.7-0.1,1.1
			c0,0.5,0.3,0.8,0.8,1c1.2,0.4,2.3,0.9,3.4,1.5c0.8,0.5,1.6,1,2.3,1.7c0.4,0.4,0.7,0.9,0.8,1.4c0.1,0.3,0,0.6,0,1
			c0,0.8-0.3,1.3-0.9,1.7c-0.7,0.5-1.5,0.8-2.3,1c-1.5,0.4-3,0.5-4.5,0.6C77.9,85.9,77.9,85.9,77.8,86z"/>
	</g>
</g>
</svg>
