<?xml version="1.0" encoding="utf-8"?>
<!-- Generator: Adobe Illustrator 22.1.0, SVG Export Plug-In . SVG Version: 6.00 Build 0)  -->
<svg version="1.1" id="Layer_1" xmlns="http://www.w3.org/2000/svg" xmlns:xlink="http://www.w3.org/1999/xlink" x="0px" y="0px"
	 viewBox="0 0 200 125" style="enable-background:new 0 0 200 125;" xml:space="preserve">
<style type="text/css">
	.st0{fill:#FFCE00;}
	.st1{fill:#BF8B0A;}
	.st2{fill:#FFFFFF;}
	.st3{fill:#0070E0;}
	.st4{fill:#2EA2DB;}
	.st5{fill:#E1E6E9;}
	.st6{fill:#193651;}
	.st7{fill:#FDBF5E;}
	.st8{fill:#CFD0D1;}
	.st9{fill:#57555C;}
	.st10{fill:#FEA832;}
	.st11{fill:#FE8821;}
	.st12{fill:#FEDB41;}
	.st13{fill:#3C3A41;}
</style>
<g>
	<path class="st0" d="M73.3,78.7c-1.9,0-3.4-1.4-3.4-3.1V49.8c0-1.7,1.5-3.1,3.4-3.1s3.4,1.4,3.4,3.1v25.8
		C76.7,77.3,75.2,78.7,73.3,78.7z"/>
	<path class="st0" d="M26.9,72.4c-1.9,0-3.4,1.4-3.4,3.1s1.5,3.1,3.4,3.1h46.5v-6.3L26.9,72.4L26.9,72.4z"/>
	<path class="st0" d="M119.6,72.4H73.5v6.3h46.2c1.9,0,3.4-1.4,3.4-3.1C123,73.8,121.5,72.4,119.6,72.4z"/>
	<rect x="64" y="67" class="st1" width="18.5" height="17.2"/>
	<g>
		<path class="st2" d="M197.7,94.5h-91.4l0,0c0,6.8,5.9,12.1,13,12.1h65.4C192,106.6,197.7,101.3,197.7,94.5L197.7,94.5z"/>
		<path class="st3" d="M184.7,108.7h-65.4c-8.5,0-15.3-6.4-15.3-14.2c0-1.3,0.9-2.1,2.3-2.1h91.4c1.4,0,2.3,0.8,2.3,2.1
			C200,102.4,193.1,108.7,184.7,108.7z M109,96.6c0.9,4.5,5.3,7.8,10.3,7.8h65.4c5,0,9.4-3.4,10.5-7.8H109z"/>
		<rect x="112.9" y="44.9" class="st4" width="78.4" height="49.8"/>
		<path class="st3" d="M191.3,96.6h-78.4c-1.4,0-2.3-0.8-2.3-2.1V44.9c0-1.3,0.9-2.1,2.3-2.1h78.4c1.4,0,2.3,0.8,2.3,2.1v49.8
			C193.6,95.8,192.5,96.6,191.3,96.6z M115.2,92.4H189V47.1h-73.8V92.4z"/>
		<rect x="122.4" y="53.6" class="st2" width="59.4" height="32.2"/>
		<polygon class="st5" points="142.4,75.2 139.4,77.6 136.5,75.2 136.5,73.8 142.4,73.8 		"/>
		<ellipse class="st6" cx="139.4" cy="67" rx="7.3" ry="6.8"/>
		<path class="st7" d="M133.7,71.2V68c0,0,5.7,1.7,8.5-3c0,0,0.7,2.1,3.2,2.5v3.6c0,0-1.1,4.2-5.7,4.2
			C139.4,75.5,134.9,75.7,133.7,71.2z"/>
		<path class="st5" d="M152,85.8v-3c0-2.1-1.4-4-3.4-5.1c-2.3-0.8-4.6-1.3-4.6-1.3l-4.3,0.8l-4.1-0.8c0,0-2.5,0.4-4.8,1.3
			c-2.1,0.8-3.4,2.8-3.4,5.1c0,1.1,0,0.6,0,3H152z"/>
		<g>
			<polygon class="st8" points="136.5,75.2 135.3,76.7 137.4,80.5 139.4,77.6 			"/>
			<polygon class="st8" points="142.4,75.2 143.8,76.7 141.7,80.7 139.4,77.6 			"/>
		</g>
		<polygon class="st4" points="137.6,85.8 141.7,85.8 140.1,80.5 140.8,79.5 139.4,77.6 138.1,79.5 139,80.5 		"/>
		<rect x="155" y="68.5" class="st6" width="4.6" height="3.8"/>
		<rect x="163.7" y="68.5" class="st6" width="4.6" height="3.8"/>
		<rect x="172.3" y="68.5" class="st6" width="4.6" height="3.8"/>
		<rect x="155.2" y="60.6" class="st6" width="21.5" height="4.2"/>
	</g>
	<polygon class="st5" points="25.3,80.2 20.3,84.2 15.3,80.2 15.3,77.8 25.3,77.8 	"/>
	<ellipse class="st6" cx="20.3" cy="66.4" rx="12.3" ry="11.4"/>
	<path class="st7" d="M10.7,73.5v-5.3c0,0,9.6,2.8,14.2-5c0,0,1.2,3.6,5.4,4.3v6c0,0-1.9,7.1-9.6,7.1C20.3,80.6,12.7,81,10.7,73.5z"
		/>
	<path class="st5" d="M41.4,98v-5c0-3.6-2.3-6.8-5.8-8.5c-3.8-1.4-7.7-2.1-7.7-2.1l-7.3,1.4l-6.9-1.4c0,0-4.2,0.7-8.1,2.1
		C2.3,85.9,0,89.1,0,93c0,1.8,0,1.1,0,5H41.4z"/>
	<g>
		<polygon class="st8" points="15.3,80.2 13.4,82.7 16.9,89.1 20.3,84.2 		"/>
		<polygon class="st8" points="25.3,80.2 27.6,82.7 24.2,89.5 20.3,84.2 		"/>
	</g>
	<polyline class="st4" points="22.6,87.4 20.3,84.2 18,87.4 	"/>
	<g>
		<path class="st9" d="M75.6,16.6c-6.1,0-11.6,3.1-14.4,8.1c-0.1,0.3-1.7,11-1.7,11.2v4.7c0,0.6,0.5,1.1,1.2,1.1h5
			c0.7,0,1.2-0.5,1.2-1.1v-9l1.3-4.3c1.5-2.4,4.4-3.9,7.4-3.9c4.8,0,8.7,3.6,8.7,8v9.2c0,0.6,0.5,1.1,1.2,1.1h5
			c0.7,0,1.2-0.5,1.2-1.1v-9.2C91.7,23.3,84.4,16.6,75.6,16.6z"/>
		<path class="st10" d="M79.9,29.5L75,26c-0.2-0.1-0.5-0.2-0.7-0.2H65l-0.1-0.1c-1.3-1.3-3.3-2.2-5.4-2.2c-4.1,0-7.4,3.1-7.4,6.9
			s3.3,6.9,7.4,6.9c3.1,0,5.9-1.9,7-4.5l2.1,1.9c0.5,0.5,1.3,0.5,1.7,0l1.6-1.5l1.6,1.5c0.4,0.4,1.1,0.5,1.6,0.1l5-3.4
			c0.3-0.2,0.5-0.6,0.5-0.9C80.4,30,80.3,29.7,79.9,29.5z"/>
		<path class="st11" d="M80.4,30.4c0,0.4-0.2,0.7-0.5,0.9l-5,3.4c-0.5,0.3-1.2,0.3-1.6-0.1l-1.6-1.5l-1.6,1.5
			c-0.5,0.5-1.3,0.5-1.7,0l-2.1-1.9c-1.1,2.7-3.8,4.5-7,4.5c-4.1,0-7.4-3.1-7.4-6.9L80.4,30.4L80.4,30.4z"/>
		<path class="st12" d="M90.4,39.6H60.7c-2.1,0-3.7,1.5-3.7,3.4v9.3c0,1.9,1.7,3.4,3.7,3.4h29.7c2.1,0,3.8-1.5,3.8-3.4V43
			C94.2,41.1,92.5,39.6,90.4,39.6z"/>
		<rect x="73.2" y="45.4" class="st9" width="14.8" height="4.6"/>
		<rect x="75.6" y="45.4" class="st9" width="12.5" height="4.6"/>
		<path class="st11" d="M87.9,44.2H73.1c-0.7,0-1.2,0.5-1.2,1.1V50c0,0.6,0.5,1.1,1.2,1.1H88c0.7,0,1.2-0.5,1.2-1.1v-4.7
			C89.2,44.7,88.6,44.2,87.9,44.2z M76.8,48.9h-2.5v-2.4h2.5V48.9z M81.8,48.9h-2.5v-2.4h2.5V48.9z M86.7,48.9h-2.5v-2.4h2.5V48.9z"
			/>
		<path class="st9" d="M60.5,30.4c0,0.3-0.1,0.5-0.3,0.7c-0.5,0.4-1.3,0.4-1.8,0c-0.2-0.2-0.3-0.5-0.3-0.7c0-0.3,0-0.6,0.3-0.9
			c0.5-0.4,1.3-0.4,1.8,0C60.4,29.8,60.6,30.1,60.5,30.4z"/>
		<path class="st13" d="M60.5,30.4c0,0.3-0.1,0.5-0.3,0.7c-0.5,0.4-1.3,0.4-1.8,0c-0.2-0.2-0.3-0.5-0.3-0.7H60.5z"/>
	</g>
	<polygon class="st4" points="17.2,98 23.8,98 21.2,89.1 22.4,87.4 20.1,84.2 17.9,87.4 19.4,89.1 	"/>
</g>
</svg>
