<?xml version="1.0" encoding="utf-8"?>
<!-- Generator: Adobe Illustrator 22.1.0, SVG Export Plug-In . SVG Version: 6.00 Build 0)  -->
<svg version="1.1" id="Layer_1" xmlns="http://www.w3.org/2000/svg" xmlns:xlink="http://www.w3.org/1999/xlink" x="0px" y="0px"
	 viewBox="0 0 150 150" style="enable-background:new 0 0 150 150;" xml:space="preserve">
<style type="text/css">
	.st0{fill:#FEDB41;}
	.st1{fill:#FDF3C2;}
	.st2{fill:#0070E0;}
	.st3{fill:#663435;}
	.st4{fill:#A91523;}
</style>
<g>
	<g>
		<path class="st0" d="M132.8,119.8H18.1c-2.9,0-5.2-2.6-5.2-5.8V36c0-3.2,2.3-5.8,5.2-5.8h114.7c2.9,0,5.2,2.6,5.2,5.8v78
			C138,117.2,135.7,119.8,132.8,119.8z"/>
	</g>
	<path class="st1" d="M132.4,46.3v57.2c-6,0-10.8,4.8-10.8,10.8H29.9c0-6-4.8-10.8-10.8-10.8V46.3c6,0,10.8-4.8,10.8-10.8h91.7
		C121.6,41.5,126.4,46.3,132.4,46.3z"/>
	<g>
		<path class="st2" d="M53.5,55.9H31.4c-2,0-3.6-1.6-3.6-3.6s1.6-3.6,3.6-3.6h22.1c2,0,3.6,1.6,3.6,3.6S55.5,55.9,53.5,55.9z"/>
	</g>
	<g>
		<path class="st2" d="M68.2,70.6H31.4c-2,0-3.6-1.6-3.6-3.6c0-2,1.6-3.6,3.6-3.6h36.8c2,0,3.6,1.6,3.6,3.6
			C71.8,69,70.2,70.6,68.2,70.6z"/>
	</g>
	<g>
		<path class="st2" d="M68.2,85.3H31.4c-2,0-3.6-1.6-3.6-3.6c0-2,1.6-3.6,3.6-3.6h36.8c2,0,3.6,1.6,3.6,3.6
			C71.8,83.7,70.2,85.3,68.2,85.3z"/>
	</g>
	<g>
		<path class="st3" d="M104.4,115.4l4.2-4.2l4.2,4.2c1.2,1.2,3.2,0.3,3.2-1.3v-25h-14.7v25C101.2,115.7,103.2,116.6,104.4,115.4z"/>
	</g>
	<g>
		<circle class="st4" cx="108.6" cy="81.8" r="14.7"/>
	</g>
</g>
</svg>
