<?xml version="1.0" encoding="utf-8"?>
<!-- Generator: Adobe Illustrator 22.1.0, SVG Export Plug-In . SVG Version: 6.00 Build 0)  -->
<svg version="1.1" id="Layer_1" xmlns="http://www.w3.org/2000/svg" xmlns:xlink="http://www.w3.org/1999/xlink" x="0px" y="0px"
	 viewBox="0 0 150 150" style="enable-background:new 0 0 150 150;" xml:space="preserve">
<style type="text/css">
	.st0{fill:#0088FF;}
	.st1{fill:#005CA0;}
	.st2{fill:#A91523;}
	.st3{fill:#FFDAA8;}
	.st4{fill:#EFC75E;}
	.st5{fill:#CA9F30;}
</style>
<path class="st0" d="M130.1,116.9H19.9c-6.6,0-12-5.4-12-12V38.4c0-6.6,5.4-12,12-12h110.1c6.6,0,12,5.4,12,12v66.5
	C142.1,111.5,136.7,116.9,130.1,116.9z"/>
<path class="st1" d="M19.9,26.4c-6.6,0-12,5.4-12,12v66.5c0,6.6,5.4,12,12,12h53.9V26.4H19.9z"/>
<path class="st2" d="M47,67.6h-9.8c-8.2,0-14.8,6.7-14.8,14.8v16.8h39.5V82.4C61.8,74.2,55.1,67.6,47,67.6z"/>
<path class="st3" d="M42,46.8c-6.9,0-12.4,5.6-12.4,12.4S35.2,71.7,42,71.7s12.4-5.6,12.4-12.4S48.9,46.8,42,46.8z"/>
<g>
	<path class="st4" d="M125.5,84c-0.3-0.2-2.8-0.1-2.8-0.1l0-2.7l-1.2-1.4l-2.9,0l0,0l0,0c0,0,0-2.9,0-2.9l-1.4-1
		c0,0-2.7-0.1-2.7-0.1l-0.2-2.7l-2.5-2.9c0.8-1.8,1.3-3.9,1.3-6c0-7.9-6.4-14.3-14.4-14.3c-7.9,0-14.4,6.4-14.4,14.3
		c0,7.9,6.4,14.3,14.4,14.3c2.2,0,4.3-0.5,6.1-1.4l16.3,16.4c0,0,6.9,0,6.9,0l0-7C128.2,86.6,127.1,85.5,125.5,84z M96.1,64.9
		c-1.9,0-3.4-1.5-3.4-3.4c0-1.9,1.5-3.4,3.4-3.4c1.9,0,3.4,1.5,3.4,3.4S98,64.9,96.1,64.9z"/>
	<path class="st5" d="M96.1,56.6c-2.6,0-4.8,2.1-4.8,4.8c0,2.6,2.1,4.8,4.8,4.8c2.6,0,4.8-2.1,4.8-4.8
		C100.9,58.8,98.7,56.6,96.1,56.6z M96.1,63.5c-1.1,0-2.1-0.9-2.1-2.1c0-1.1,0.9-2.1,2.1-2.1c1.1,0,2.1,0.9,2.1,2.1
		C98.1,62.6,97.2,63.5,96.1,63.5z"/>
	<path class="st5" d="M108.3,75c-1.3,1.1-2.8,2-4.5,2.6l16.2,16h6.8L108.3,75z"/>
</g>
</svg>
